<svg xmlns="http://www.w3.org/2000/svg" viewBox="0 0 512 570">
  <defs>
    <linearGradient id="bronzeGrad" x1="0%" y1="0%" x2="100%" y2="100%">
      <stop offset="0%" style="stop-color:#E6C371;stop-opacity:1" />
      <stop offset="50%" style="stop-color:#C4A96A;stop-opacity:1" />
      <stop offset="100%" style="stop-color:#A68D58;stop-opacity:1" />
    </linearGradient>
    <radialGradient id="glowGrad" cx="50%" cy="50%" r="50%">
      <stop offset="0%" style="stop-color:#C4A96A;stop-opacity:0.3" />
      <stop offset="100%" style="stop-color:#C4A96A;stop-opacity:0" />
    </radialGradient>
    <filter id="shadow" x="-50%" y="-50%" width="200%" height="200%">
      <feDropShadow dx="0" dy="4" stdDeviation="8" flood-opacity="0.2" />
    </filter>
  </defs>
  
  <!-- Logo symbol (same as before) -->
  <g transform="translate(0, 0)">
    <circle cx="256" cy="256" r="240" fill="none" stroke="url(#bronzeGrad)" stroke-width="1.5" opacity="0.4"/>
    <circle cx="256" cy="256" r="235" fill="none" stroke="url(#bronzeGrad)" stroke-width="0.8" opacity="0.2"/>
    <circle cx="256" cy="256" r="180" fill="url(#glowGrad)"/>
    
    <g filter="url(#shadow)">
      <path d="M 256 80 L 380 150 L 380 290 L 256 360 L 132 290 L 132 150 Z" 
            fill="none" stroke="url(#bronzeGrad)" stroke-width="2" opacity="0.3"/>
    </g>
    
    <g transform="translate(180, 220)">
      <line x1="0" y1="-50" x2="0" y2="50" stroke="url(#bronzeGrad)" stroke-width="4" stroke-linecap="round"/>
      <path d="M -20 -30 Q -28 -15 -22 10" fill="none" stroke="url(#bronzeGrad)" stroke-width="3.5" stroke-linecap="round" stroke-linejoin="round"/>
      <path d="M 20 -30 Q 28 -15 22 10" fill="none" stroke="url(#bronzeGrad)" stroke-width="3.5" stroke-linecap="round" stroke-linejoin="round"/>
      <path d="M 0 50 Q 0 65 -8 72" fill="none" stroke="url(#bronzeGrad)" stroke-width="3" stroke-linecap="round"/>
      <circle cx="0" cy="-50" r="3.5" fill="url(#bronzeGrad)"/>
    </g>
    
    <g transform="translate(256, 220)">
      <line x1="0" y1="-60" x2="0" y2="60" stroke="url(#bronzeGrad)" stroke-width="4.5" stroke-linecap="round"/>
      <circle cx="0" cy="0" r="30" fill="none" stroke="url(#bronzeGrad)" stroke-width="4"/>
      <circle cx="0" cy="0" r="25" fill="none" stroke="url(#bronzeGrad)" stroke-width="1.5" opacity="0.4"/>
      <circle cx="0" cy="-60" r="3.5" fill="url(#bronzeGrad)"/>
      <circle cx="0" cy="60" r="3.5" fill="url(#bronzeGrad)"/>
    </g>
    
    <g transform="translate(332, 220)">
      <line x1="0" y1="-50" x2="0" y2="50" stroke="url(#bronzeGrad)" stroke-width="4" stroke-linecap="round"/>
      <line x1="-12" y1="-50" x2="12" y2="-50" stroke="url(#bronzeGrad)" stroke-width="3" stroke-linecap="round"/>
      <line x1="-12" y1="50" x2="12" y2="50" stroke="url(#bronzeGrad)" stroke-width="3" stroke-linecap="round"/>
      <circle cx="0" cy="50" r="3.5" fill="url(#bronzeGrad)"/>
    </g>
    
    <g stroke="url(#bronzeGrad)" stroke-width="2.5" fill="none" stroke-linecap="round" stroke-linejoin="round">
      <path d="M 140 220 L 80 180 L 50 160" opacity="0.6"/>
      <circle cx="50" cy="160" r="4" fill="url(#bronzeGrad)" opacity="0.7"/>
    </g>
    
    <g stroke="url(#bronzeGrad)" stroke-width="2.5" fill="none" stroke-linecap="round" stroke-linejoin="round">
      <path d="M 372 220 L 432 180 L 462 160" opacity="0.6"/>
      <circle cx="462" cy="160" r="4" fill="url(#bronzeGrad)" opacity="0.7"/>
    </g>
    
    <g stroke="url(#bronzeGrad)" stroke-width="2" fill="none" stroke-linecap="round" opacity="0.5">
      <path d="M 220 320 Q 220 350 256 365"/>
      <path d="M 292 320 Q 292 350 256 365"/>
    </g>
  </g>
  
  <!-- Text label -->
  <text x="256" y="480" font-family="'Space Grotesk', -apple-system, BlinkMacSystemFont, 'Segoe UI', sans-serif" 
        font-size="48" font-weight="700" text-anchor="middle" fill="url(#bronzeGrad)" 
        letter-spacing="2" font-variant="small-caps">Cy·Ph·Ai</text>
  
  <!-- Subtitle -->
  <text x="256" y="530" font-family="'Space Grotesk', -apple-system, BlinkMacSystemFont, 'Segoe UI', sans-serif" 
        font-size="14" text-anchor="middle" fill="url(#bronzeGrad)" opacity="0.6" letter-spacing="1">
    CYBER·PHYSICAL·AI
  </text>
</svg>
