<?xml version="1.0" standalone="no"?>
<!DOCTYPE svg PUBLIC "-//W3C//DTD SVG 20010904//EN"
 "http://www.w3.org/TR/2001/REC-SVG-20010904/DTD/svg10.dtd">
<svg version="1.0" xmlns="http://www.w3.org/2000/svg"
 width="500.000000pt" height="500.000000pt" viewBox="0 0 500.000000 500.000000"
 preserveAspectRatio="xMidYMid meet">

<g transform="translate(0.000000,500.000000) scale(0.100000,-0.100000)"
fill="#000000" stroke="none">
<path d="M0 2500 l0 -2500 2500 0 2500 0 0 2500 0 2500 -2500 0 -2500 0 0
-2500z m2787 1354 c9 -24 -5 -29 -27 -9 -28 25 -27 50 1 35 11 -6 23 -18 26
-26z m-1540 -50 c69 -76 81 -94 66 -94 -9 0 -153 155 -153 164 0 18 26 -3 87
-70z m1568 -69 c206 -273 432 -529 797 -900 139 -141 213 -223 207 -230 -9 -9
-378 355 -538 530 -35 39 -82 90 -105 115 -23 25 -68 77 -99 117 -32 40 -67
83 -80 97 -12 13 -32 37 -44 53 -12 15 -42 54 -68 85 -25 31 -45 61 -45 67 0
5 -8 16 -18 23 -19 13 -102 122 -102 133 0 4 -7 13 -15 22 -8 8 -12 19 -9 25
8 12 3 18 119 -137z m-1550 115 c5 -8 11 -8 20 0 17 14 98 -80 89 -104 -3 -9
-8 -16 -10 -16 -8 0 -124 113 -124 121 0 12 18 11 25 -1z m115 -25 c18 -19 30
-38 26 -42 -3 -4 -26 12 -49 35 -26 26 -36 42 -26 42 8 0 30 -16 49 -35z
m1247 8 c-3 -2 14 -23 37 -47 22 -23 66 -71 96 -107 30 -35 57 -66 60 -69 3
-3 44 -50 90 -105 78 -91 146 -167 225 -250 17 -17 63 -67 104 -111 124 -133
443 -453 494 -496 31 -27 45 -44 38 -51 -6 -6 -22 1 -45 19 -37 30 -528 522
-612 614 -113 124 -408 465 -502 581 -25 31 -22 59 4 38 8 -6 13 -14 11 -16z
m377 -11 c33 -37 7 -47 -30 -11 -18 18 -31 36 -28 41 7 10 34 -4 58 -30z m-53
-23 c51 -53 39 -73 -14 -22 l-41 38 32 -41 c18 -23 32 -45 32 -48 0 -8 139
-179 276 -341 119 -140 240 -272 445 -481 133 -136 147 -154 135 -170 -13 -16
-17 -15 -67 29 -100 86 -495 499 -624 652 -27 33 -57 66 -67 75 -33 30 -248
290 -248 300 0 17 19 11 38 -12 9 -11 32 -38 50 -58 17 -21 32 -40 32 -42 0
-3 37 -43 81 -89 83 -85 70 -56 -23 52 -26 30 -48 61 -48 67 0 7 -5 12 -11 12
-5 0 -7 5 -4 10 3 6 2 10 -3 10 -4 0 -20 18 -35 40 -23 36 -24 41 -9 50 26 15
31 13 73 -31z m-1717 -38 c35 -35 54 -61 47 -65 -12 -8 -123 103 -115 115 7
12 4 15 68 -50z m1436 -61 c217 -304 386 -496 802 -917 170 -171 275 -284 268
-288 -14 -9 -17 -6 -259 235 -291 290 -483 498 -596 645 -37 49 -53 68 -77 96
-10 10 -18 22 -18 27 0 4 -12 21 -26 37 -103 119 -218 296 -184 283 4 -2 45
-55 90 -118z m-122 51 c18 -22 32 -43 32 -48 0 -4 11 -16 24 -28 13 -11 79
-87 147 -170 157 -192 293 -348 422 -485 104 -110 398 -409 446 -453 22 -21
41 -42 41 -48 0 -6 5 -7 10 -4 6 3 10 0 10 -7 0 -7 10 -19 21 -26 16 -10 18
-17 10 -25 -9 -9 -80 58 -284 263 -150 151 -311 317 -357 369 -47 52 -90 99
-95 105 -6 6 -59 70 -119 141 -122 145 -154 180 -111 120 129 -179 400 -484
735 -824 104 -107 187 -198 182 -203 -4 -4 -91 76 -192 178 -274 275 -309 311
-396 409 -43 49 -86 96 -95 105 -9 8 -34 37 -55 65 -21 27 -46 56 -54 65 -8 9
-22 27 -30 40 -13 21 -50 65 -101 122 -9 10 -22 30 -30 45 -8 14 -30 44 -51
66 -20 22 -42 52 -49 66 -7 14 -27 44 -44 66 -48 62 -77 114 -70 125 10 17 20
12 53 -29z m-1338 -26 c22 -23 29 -35 19 -35 -15 0 -69 49 -69 63 0 15 18 5
50 -28z m1945 -152 c66 -76 127 -144 135 -153 8 -8 71 -76 140 -150 68 -74
195 -206 282 -293 87 -87 158 -162 158 -167 0 -29 -34 -1 -191 158 -290 294
-669 711 -669 736 0 25 41 -12 145 -131z m-624 3 c62 -73 74 -96 49 -96 -13 0
-150 172 -150 189 0 20 21 1 101 -93z m-32 -40 c56 -75 75 -106 65 -110 -8 -3
-27 13 -48 42 -20 26 -50 64 -68 85 -42 49 -51 65 -43 77 3 6 8 10 10 10 2 0
40 -47 84 -104z m-97 12 c11 -13 32 -38 46 -57 15 -18 37 -45 49 -60 23 -26
30 -51 14 -51 -10 0 -151 169 -151 181 0 16 22 9 42 -13z m879 -38 c17 -16 28
-34 24 -40 -3 -5 0 -7 8 -4 8 3 21 -3 29 -14 7 -11 38 -46 68 -79 30 -33 69
-78 86 -99 18 -21 54 -62 80 -90 115 -121 219 -235 222 -244 2 -6 8 -8 13 -4
5 3 9 0 9 -5 0 -6 16 -26 36 -45 20 -19 34 -40 32 -46 -4 -14 -334 327 -330
341 1 5 -2 8 -6 7 -4 -2 -32 24 -62 57 -29 33 -58 63 -64 67 -6 4 -11 11 -12
15 0 4 -28 37 -62 72 -34 35 -60 66 -58 69 6 5 -21 33 -30 32 -7 -2 -24 21
-24 33 0 13 11 7 41 -23z m206 -97 c60 -65 127 -138 149 -162 21 -25 56 -62
78 -84 24 -25 35 -42 28 -49 -10 -10 -374 371 -380 398 -8 32 21 8 125 -103z
m-1068 3 c66 -87 82 -116 63 -116 -4 0 -28 28 -52 61 -25 34 -53 70 -62 80
-10 11 -18 23 -18 28 0 5 -5 11 -12 13 -10 4 -4 28 7 28 2 0 36 -42 74 -94z
m-29 -109 c98 -115 126 -157 102 -157 -11 0 -242 270 -242 283 0 26 41 -12
140 -126z m-27 -64 c48 -61 94 -117 102 -123 18 -15 19 -30 2 -30 -7 0 -33 25
-57 56 -25 31 -55 66 -67 79 -13 12 -23 27 -23 32 0 6 -11 19 -25 29 -14 10
-25 22 -25 27 0 4 -4 13 -10 20 -48 59 -58 75 -52 81 8 9 38 -24 155 -171z
m395 69 c12 -13 8 -32 -6 -32 -4 0 -32 27 -61 61 -38 43 -50 63 -41 69 8 5 27
-9 53 -39 23 -25 48 -52 55 -59z m-84 2 c58 -68 66 -84 41 -84 -8 0 -15 3 -15
8 0 4 -15 23 -33 43 -64 71 -69 78 -62 88 3 6 8 11 9 11 2 0 29 -30 60 -66z
m-464 -56 c56 -68 72 -98 52 -98 -13 0 -142 157 -135 164 13 13 24 4 83 -66z
m-31 -42 c28 -35 51 -67 51 -70 0 -16 -31 -3 -47 19 -10 14 -30 42 -45 62 -16
20 -28 40 -28 44 0 22 22 4 69 -55z m501 2 c0 -16 -27 -7 -49 16 -34 36 -16
54 20 20 16 -15 29 -31 29 -36z m-890 -50 c51 -70 56 -78 42 -78 -14 0 -88 90
-96 118 -12 38 7 24 54 -40z m30 47 c7 -9 10 -18 7 -22 -8 -7 -37 15 -37 28 0
14 16 11 30 -6z m1177 -170 c205 -220 423 -434 603 -594 30 -26 42 -43 35 -50
-16 -15 -315 263 -590 549 -168 175 -219 235 -210 251 5 8 11 7 20 -3 6 -7 70
-76 142 -153z m34 -130 c52 -55 131 -138 175 -184 43 -46 159 -165 256 -264
166 -170 176 -183 161 -200 -16 -17 -17 -17 -37 1 -298 264 -578 541 -802 793
-80 90 -100 118 -88 123 10 4 24 -4 37 -21 47 -59 419 -455 493 -524 22 -20
55 -54 75 -75 56 -60 169 -164 180 -164 5 0 9 -6 9 -12 1 -7 22 -28 48 -47 26
-19 45 -32 42 -28 -3 3 -105 107 -227 230 -123 123 -223 229 -223 235 0 7 -4
12 -9 12 -13 0 -166 161 -163 172 1 5 -2 7 -7 4 -5 -4 -16 3 -24 14 -8 11 -33
41 -56 65 -94 100 -123 138 -111 145 8 5 43 -27 93 -84 45 -50 125 -136 178
-191z m-873 225 c16 -21 19 -30 9 -30 -17 0 -59 44 -50 53 11 12 19 8 41 -23z
m-280 1 c3 -8 -1 -12 -9 -9 -7 2 -15 10 -17 17 -3 8 1 12 9 9 7 -2 15 -10 17
-17z m498 -76 c45 -51 64 -79 57 -86 -7 -7 -33 16 -81 69 -64 71 -76 92 -51
92 4 0 38 -34 75 -75z m-601 17 c26 -30 35 -46 28 -53 -8 -8 -22 4 -47 37 -59
77 -46 88 19 16z m1039 -137 c49 -55 154 -169 234 -253 174 -183 186 -198 171
-207 -13 -9 -220 205 -214 221 2 6 -3 11 -12 10 -8 0 -20 7 -27 17 -6 10 -43
50 -81 90 -73 75 -167 181 -206 232 -13 17 -30 35 -38 41 -8 7 -11 16 -6 24 9
14 18 6 179 -175z m-1071 108 c12 -16 50 -60 84 -100 35 -40 63 -75 63 -78 0
-19 -32 3 -70 50 -25 30 -60 71 -77 92 -30 35 -42 63 -27 63 3 0 16 -12 27
-27z m-128 -66 c47 -56 47 -58 30 -78 -19 -20 -19 -19 -71 32 -29 29 -50 57
-47 62 4 6 13 2 23 -9 25 -29 90 -89 90 -83 0 3 -22 34 -49 69 -28 35 -47 68
-44 73 3 5 8 5 12 0 4 -4 29 -34 56 -66z m775 -26 c0 -22 -19 -10 -59 36 -22
26 -37 51 -34 57 7 10 93 -76 93 -93z m-750 55 c8 -11 18 -32 22 -46 6 -22 2
-20 -28 14 -19 22 -34 46 -34 53 0 17 19 7 40 -21z m599 15 c7 -5 12 -14 9
-21 -2 -7 -10 -4 -22 9 -19 21 -12 28 13 12z m848 -478 c87 -86 149 -154 143
-158 -18 -11 -68 35 -301 277 -301 311 -327 341 -321 357 3 9 62 -46 165 -155
89 -93 230 -237 314 -321z m-872 451 c9 -14 15 -27 13 -30 -8 -7 -48 27 -48
42 0 22 16 17 35 -12z m-438 -52 c12 -15 44 -54 72 -87 27 -33 47 -64 44 -69
-4 -5 -19 6 -35 25 -16 19 -51 60 -79 91 -27 31 -49 59 -49 62 0 16 27 3 47
-22z m614 -212 c261 -278 629 -640 651 -640 9 0 9 -3 1 -11 -9 -9 -44 17 -140
104 -122 110 -475 463 -612 612 -36 39 -80 86 -99 107 -20 21 -31 41 -27 48 5
9 16 3 35 -16 15 -16 101 -108 191 -204z m-802 141 c-14 -4 -70 59 -62 71 3 6
20 -7 39 -29 18 -21 29 -40 23 -42z m1246 -175 c50 -54 118 -129 152 -165 40
-43 58 -69 52 -76 -6 -6 -21 3 -41 25 -29 32 -93 101 -223 240 -146 156 -175
191 -169 202 7 12 52 -33 229 -226z m-1317 193 c14 -17 19 -29 11 -29 -17 0
-49 30 -49 47 0 20 13 15 38 -18z m270 -58 c34 -39 60 -76 57 -82 -4 -5 -12
-6 -18 -2 -7 4 -19 6 -28 5 -20 -3 -118 100 -101 106 7 2 33 -19 58 -47 26
-29 49 -50 51 -47 3 3 -20 33 -51 68 -31 35 -56 67 -56 71 0 20 29 -4 88 -72z
m835 -48 c67 -70 150 -156 184 -190 33 -35 59 -63 56 -63 -3 0 7 -10 22 -22
16 -12 50 -43 78 -69 37 -35 45 -48 34 -52 -11 -4 -65 43 -170 146 -268 264
-367 377 -331 377 2 0 59 -57 127 -127z m-203 -158 c91 -99 242 -260 337 -359
94 -99 169 -184 166 -190 -6 -9 -116 100 -409 409 -178 188 -248 264 -280 304
-10 13 -29 33 -41 44 -13 11 -23 30 -23 41 1 17 8 13 43 -25 23 -25 116 -126
207 -224z m-46 239 c3 -9 10 -13 15 -10 5 3 40 -27 77 -67 38 -39 165 -168
283 -285 117 -118 209 -217 205 -222 -5 -5 -60 41 -123 101 -63 60 -116 109
-118 109 -10 0 54 -72 137 -155 49 -49 90 -97 90 -105 -1 -16 -153 138 -447
448 -135 143 -171 187 -162 198 12 15 35 9 43 -12z m242 -149 c81 -88 189
-204 241 -257 58 -60 91 -102 87 -110 -7 -11 -22 3 -301 298 -190 200 -203
215 -197 226 3 5 10 8 14 6 5 -2 75 -75 156 -163z m-462 113 c66 -79 319 -349
409 -437 38 -36 130 -126 204 -198 75 -73 134 -135 131 -138 -20 -21 -788 747
-788 787 0 16 26 7 44 -14z m-454 -11 c36 -31 55 -57 42 -57 -11 0 -82 66 -82
75 0 11 16 3 40 -18z m377 -1 c12 -22 275 -300 596 -631 63 -65 113 -123 110
-128 -10 -16 -743 741 -743 767 0 12 29 6 37 -8z m100 -191 c66 -71 176 -186
243 -255 68 -69 122 -129 121 -135 -2 -5 1 -7 5 -3 9 10 35 -12 28 -23 -3 -5
0 -8 8 -7 7 2 12 -3 11 -9 -2 -7 1 -13 7 -13 5 0 29 -18 52 -41 23 -22 55 -52
71 -65 16 -13 27 -29 25 -35 -5 -15 -227 192 -438 407 -227 232 -314 330 -305
345 5 7 15 4 30 -12 12 -13 76 -82 142 -154z m-476 139 c12 -14 11 -16 -5 -13
-11 2 -21 10 -24 17 -5 17 13 15 29 -4z m-52 -17 c6 -8 8 -17 4 -20 -7 -8 -33
11 -33 24 0 13 16 11 29 -4z m440 -100 c359 -391 489 -525 613 -634 54 -47 95
-90 92 -95 -7 -11 -165 133 -334 302 -120 121 -175 179 -340 356 -165 177
-162 174 -137 174 6 0 54 -46 106 -103z m133 -203 c65 -66 118 -123 118 -127
0 -24 -39 7 -136 106 -183 187 -264 279 -257 290 3 5 40 -26 81 -69 41 -43
128 -133 194 -200z m-258 194 c38 -40 122 -128 187 -196 66 -68 117 -128 113
-134 -4 -6 -30 13 -61 44 -97 94 -323 338 -323 348 0 21 20 7 84 -62z m-44 -5
c62 -68 293 -311 433 -456 53 -56 97 -108 97 -117 0 -8 -48 35 -108 95 -303
311 -500 520 -496 527 10 15 21 8 74 -49z m-77 14 c18 -18 70 -75 117 -127 47
-52 136 -146 197 -207 62 -62 111 -113 108 -113 -2 0 17 -19 43 -42 60 -55
122 -121 122 -131 0 -5 10 -17 21 -26 12 -10 20 -23 18 -30 -2 -6 -159 144
-348 334 -290 291 -341 347 -331 360 16 20 16 20 53 -18z m-18 -157 c221 -242
228 -250 207 -250 -9 0 -128 125 -295 309 -43 48 -73 89 -70 97 3 9 21 -4 52
-38 25 -29 73 -82 106 -118z m37 23 c68 -70 146 -152 175 -182 29 -30 49 -59
46 -65 -8 -12 -353 341 -353 361 0 7 2 13 5 13 2 0 60 -57 127 -127z m55 -230
c-10 -9 -167 147 -167 166 0 8 39 -24 87 -72 48 -47 84 -90 80 -94z m-268 -55
c52 -54 92 -100 88 -104 -9 -9 -27 8 -169 158 -66 70 -117 132 -114 137 4 5
27 -14 53 -42 26 -29 90 -96 142 -149z m-79 27 c85 -85 151 -157 147 -162 -8
-7 -317 295 -317 309 0 19 25 -2 170 -147z m215 93 c27 -29 61 -67 77 -84 30
-33 30 -64 -1 -64 -10 0 -49 33 -89 73 -54 56 -68 77 -60 85 9 9 18 6 37 -11
24 -20 24 -20 -1 9 -16 16 -28 33 -28 37 0 17 20 3 65 -45z m-236 -133 c88
-94 156 -174 153 -179 -3 -5 -35 22 -71 61 -223 239 -261 281 -261 288 0 18
32 -12 179 -170z m18 159 c9 -8 21 -13 28 -10 7 2 56 -40 109 -93 81 -82 95
-100 83 -110 -12 -9 -36 9 -138 108 -68 66 -118 120 -111 121 7 0 20 -7 29
-16z m191 -108 c8 -12 27 -31 44 -43 19 -13 26 -23 18 -28 -12 -7 -163 139
-153 149 7 7 73 -50 91 -78z m-218 -116 c79 -76 142 -142 138 -145 -3 -3 -63
50 -133 117 -70 68 -136 129 -146 136 -19 13 -26 32 -11 32 4 0 72 -63 152
-140z m-41 -30 c68 -72 121 -134 117 -137 -6 -7 -255 246 -256 260 -1 20 26
-4 139 -123z m81 -129 c14 -10 22 -23 18 -27 -10 -10 -258 224 -258 244 0 10
46 -29 108 -90 59 -59 118 -116 132 -127z m560 213 c0 -8 -4 -12 -10 -9 -5 3
-10 10 -10 16 0 5 5 9 10 9 6 0 10 -7 10 -16z m108 -37 c54 -56 61 -67 40 -67
-12 0 -82 75 -102 108 -17 28 13 8 62 -41z m-125 5 c10 -10 14 -22 10 -25 -7
-8 -43 21 -43 35 0 14 16 9 33 -10z m-723 -94 c88 -94 98 -108 82 -108 -10 0
-160 159 -175 185 -20 37 15 8 93 -77z m729 31 c18 -22 30 -43 26 -47 -7 -7
-75 66 -75 81 0 16 17 5 49 -34z m-218 -12 c-1 -12 -15 -9 -19 4 -3 6 1 10 8
8 6 -3 11 -8 11 -12z m596 -43 c-10 -10 -58 37 -50 48 3 6 17 -2 31 -16 14
-14 23 -29 19 -32z m-1060 -91 c-10 -9 -137 119 -130 130 3 5 35 -21 71 -57
36 -36 63 -69 59 -73z m422 123 c9 -11 8 -15 -5 -20 -22 -9 -50 14 -32 25 18
12 24 11 37 -5z m266 -74 c-9 -9 -65 51 -65 67 1 10 14 2 35 -23 19 -22 33
-42 30 -44z m-807 46 c19 -19 14 -29 -8 -16 -20 13 -27 28 -12 28 4 0 13 -5
20 -12z m1350 -91 c77 -77 91 -96 79 -105 -11 -10 -22 -6 -52 18 -50 40 -57
38 -15 -5 40 -42 36 -53 -8 -22 -22 15 -31 29 -30 44 2 13 -9 34 -25 51 -16
17 -24 33 -19 36 6 3 23 -9 39 -27 16 -19 36 -37 44 -42 11 -6 -23 34 -81 95
-26 27 -41 50 -34 50 5 0 51 -42 102 -93z m-580 17 c-10 -10 -28 6 -28 24 0
15 1 15 17 -1 9 -9 14 -19 11 -23z m342 -42 c0 -13 -3 -12 -20 3 -11 10 -17
22 -14 27 8 12 34 -11 34 -30z m-81 -42 c31 -43 16 -56 -19 -17 -26 29 -30 47
-11 47 4 0 17 -14 30 -30z m57 3 c-7 -7 -26 7 -26 19 0 6 6 6 15 -2 9 -7 13
-15 11 -17z m-92 -45 c-4 -5 -19 3 -35 18 -15 15 -26 31 -23 36 4 5 19 -3 35
-18 15 -15 26 -31 23 -36z m800 -234 c10 -4 16 -18 16 -40 0 -31 -3 -34 -30
-34 -23 0 -30 4 -30 20 0 15 7 20 25 20 14 0 25 5 25 10 0 6 -9 10 -20 10 -11
0 -20 5 -20 10 0 11 11 13 34 4z m-1254 -194 l0 -140 30 0 c23 0 30 -4 30 -20
0 -18 -7 -20 -81 -20 -71 0 -80 2 -77 18 2 10 14 18 31 20 l27 3 0 119 0 119
-27 3 c-17 2 -29 10 -31 21 -3 14 4 17 47 17 l51 0 0 -140z m640 0 l0 -140 30
0 c23 0 30 -4 30 -20 0 -18 -7 -20 -80 -20 -73 0 -80 2 -80 20 0 16 7 20 30
20 l30 0 0 119 0 120 -27 3 c-17 2 -29 10 -31 21 -3 14 4 17 47 17 l51 0 0
-140z m621 50 c17 -9 19 -22 19 -100 l0 -89 28 -3 c16 -2 27 -9 27 -18 0 -12
-17 -16 -77 -18 -73 -3 -78 -1 -78 18 0 16 6 20 30 20 l30 0 0 80 0 80 -30 0
c-19 0 -30 5 -30 14 0 25 47 34 81 16z m-1843 -22 c25 -27 36 -69 27 -97 -6
-19 -14 -21 -86 -21 -60 0 -79 -3 -79 -14 0 -24 25 -35 90 -38 52 -2 65 -6 68
-20 3 -16 -5 -18 -70 -18 -65 0 -76 3 -101 25 -24 23 -27 33 -27 91 0 57 3 68
26 89 37 35 121 36 152 3z m2560 10 c21 -21 15 -41 -10 -33 -36 13 -121 11
-125 -1 -2 -7 28 -27 67 -45 92 -42 112 -77 70 -119 -29 -29 -149 -29 -176 1
-15 17 -16 22 -4 29 9 5 19 5 26 -1 7 -6 39 -9 71 -7 82 4 77 24 -19 70 -70
34 -78 40 -78 66 0 43 17 52 95 52 42 0 76 -5 83 -12z"/>
<path d="M3110 3480 c6 -11 13 -20 16 -20 2 0 0 9 -6 20 -6 11 -13 20 -16 20
-2 0 0 -9 6 -20z"/>
<path d="M3090 1580 c0 -5 9 -10 20 -10 11 0 20 5 20 10 0 6 -9 10 -20 10 -11
0 -20 -4 -20 -10z"/>
<path d="M1168 1449 c-10 -5 -18 -21 -18 -34 0 -24 3 -25 65 -25 57 0 65 2 65
18 0 42 -68 67 -112 41z"/>
</g>
</svg>
