<?xml version="1.0" standalone="no"?>
<!DOCTYPE svg PUBLIC "-//W3C//DTD SVG 20010904//EN"
 "http://www.w3.org/TR/2001/REC-SVG-20010904/DTD/svg10.dtd">
<svg version="1.0" xmlns="http://www.w3.org/2000/svg"
 width="261.000000pt" height="178.000000pt" viewBox="0 0 261.000000 178.000000"
 preserveAspectRatio="xMidYMid meet">

<g transform="translate(0.000000,178.000000) scale(0.100000,-0.100000)"
fill="#000000" stroke="none">
<path d="M25 1770 c19 -8 19 -9 -2 -9 -14 -1 -23 -7 -23 -16 0 -18 21 -20 38
-3 19 19 14 38 -10 37 -22 0 -22 -1 -3 -9z"/>
<path d="M262 1772 c-16 -11 -5 -42 17 -43 40 -3 60 10 61 39 0 14 -57 17 -78
4z m61 -9 c-7 -2 -21 -2 -30 0 -10 3 -4 5 12 5 17 0 24 -2 18 -5z"/>
<path d="M896 1772 c-7 -11 6 -27 28 -35 19 -8 56 16 56 36 0 6 -7 2 -15 -9
-13 -16 -14 -16 -9 -1 5 14 0 17 -24 17 -17 0 -33 -4 -36 -8z m34 -12 c8 -5
11 -10 5 -10 -5 0 -17 5 -25 10 -8 5 -10 10 -5 10 6 0 17 -5 25 -10z"/>
<path d="M132 1738 c-14 -14 -16 -52 -2 -43 5 3 7 0 4 -8 -9 -24 18 -38 46
-24 28 14 38 51 20 73 -15 17 -52 18 -68 2z m23 -8 c-3 -5 -11 -10 -16 -10 -6
0 -7 5 -4 10 3 6 11 10 16 10 6 0 7 -4 4 -10z m34 -54 c-9 -8 -10 -7 -5 7 3
10 7 24 7 30 1 7 3 4 6 -7 3 -10 -1 -23 -8 -30z"/>
<path d="M580 1711 c0 -5 -3 -16 -6 -25 -4 -11 -1 -16 10 -16 14 0 22 -24 17
-52 0 -5 4 -8 10 -8 8 0 10 12 6 35 -3 19 -2 35 4 35 5 0 9 -16 9 -35 0 -19 5
-35 11 -35 6 0 9 9 6 20 -3 10 1 27 9 37 13 16 14 15 9 -12 l-5 -30 11 29 c9
21 9 30 -1 36 -6 4 -10 11 -8 16 1 5 -16 10 -39 12 -24 2 -43 -1 -43 -7z m30
-11 c0 -5 -5 -10 -11 -10 -5 0 -7 5 -4 10 3 6 8 10 11 10 2 0 4 -4 4 -10z m40
0 c0 -5 -5 -10 -11 -10 -5 0 -7 5 -4 10 3 6 8 10 11 10 2 0 4 -4 4 -10z"/>
<path d="M772 1679 c-12 -19 -12 -21 2 -16 9 4 16 2 16 -4 0 -5 -6 -12 -14
-15 -9 -3 -12 -12 -9 -22 8 -22 23 -32 48 -31 l20 0 -20 10 c-16 7 -13 8 13 4
24 -3 32 -1 32 10 0 8 5 15 11 15 5 0 7 5 4 10 -3 6 -15 10 -26 10 -11 0 -19
7 -19 17 0 13 3 14 12 5 18 -18 30 -14 19 6 -15 27 -73 28 -89 1z m48 -35 c0
-8 8 -14 18 -15 9 0 12 -3 5 -5 -7 -3 -21 0 -32 6 -16 8 -21 8 -21 -1 0 -7 -3
-10 -6 -7 -8 8 18 48 28 42 4 -3 8 -12 8 -20z"/>
<path d="M390 1679 c0 -5 5 -9 10 -9 6 0 10 -5 10 -11 0 -5 -4 -7 -10 -4 -6 4
-9 -5 -8 -19 2 -21 7 -25 23 -21 11 3 14 2 8 -1 -15 -7 -17 -30 -4 -38 5 -3
21 4 36 15 21 17 25 27 20 48 -4 14 -10 29 -14 34 -11 11 -71 17 -71 6z m54
-34 c-25 -19 -40 -19 -24 0 7 8 20 15 28 15 13 0 12 -3 -4 -15z"/>
<path d="M366 1654 c-4 -9 -4 -19 -1 -22 2 -3 7 3 11 12 4 9 4 19 1 22 -2 3
-7 -3 -11 -12z"/>
<path d="M572 1640 c14 -22 24 -19 15 5 -4 8 -11 15 -17 15 -6 0 -6 -7 2 -20z"/>
<path d="M19 1648 c-3 -10 -10 -37 -15 -60 -5 -23 -2 -28 20 -34 19 -4 33 -1
46 11 22 20 27 45 8 45 -6 0 -8 3 -5 7 11 10 -13 33 -34 33 -11 0 -19 -1 -20
-2z m31 -38 c0 -5 -4 -10 -10 -10 -5 0 -10 5 -10 10 0 6 5 10 10 10 6 0 10 -4
10 -10z m13 -37 c-7 -2 -19 -2 -25 0 -7 3 -2 5 12 5 14 0 19 -2 13 -5z"/>
<path d="M374 1619 c-3 -6 1 -18 10 -27 10 -11 16 -12 16 -4 0 7 -5 12 -11 12
-6 0 -9 7 -5 15 6 17 0 20 -10 4z"/>
<path d="M198 1576 c-25 -19 -22 -27 7 -20 21 5 25 3 25 -15 0 -14 5 -19 15
-15 8 4 15 4 15 1 0 -11 -60 -26 -66 -16 -3 5 0 8 7 7 7 -2 15 5 17 15 2 9 -1
17 -7 17 -6 0 -11 -4 -11 -10 0 -5 -7 -7 -15 -4 -12 5 -13 2 -7 -17 16 -42 82
-60 82 -22 0 8 4 12 9 8 18 -11 23 36 7 60 -18 27 -32 32 -39 13 -4 -10 -6
-10 -6 0 -1 15 -11 15 -33 -2z m72 -16 c0 -5 -2 -10 -4 -10 -3 0 -8 5 -11 10
-3 6 -1 10 4 10 6 0 11 -4 11 -10z"/>
<path d="M647 1532 c-6 -8 -11 -29 -11 -48 0 -25 -2 -30 -9 -19 -4 8 -5 25 -2
38 5 17 4 19 -4 7 -6 -8 -11 -23 -11 -33 0 -23 44 -67 67 -66 16 0 16 1 -2 10
-16 8 -14 8 11 5 51 -8 79 37 54 85 -6 10 -20 19 -31 19 -11 0 -18 4 -14 9 9
15 -35 8 -48 -7z m63 -66 c0 -24 -17 -28 -23 -6 -3 13 0 20 9 20 8 0 14 -6 14
-14z"/>
<path d="M439 1511 c-13 -11 -21 -22 -18 -26 4 -3 14 1 22 10 9 8 23 15 31 15
9 0 16 5 16 10 0 16 -26 12 -51 -9z"/>
<path d="M500 1511 c0 -6 -8 -11 -18 -11 -21 0 -62 -43 -62 -65 0 -15 37 -45
57 -45 7 0 13 5 13 11 0 5 -4 8 -8 5 -14 -9 -33 10 -26 27 3 10 17 17 32 17
14 0 22 -3 18 -7 -4 -4 -13 -8 -19 -8 -7 0 -13 -4 -13 -10 -1 -5 3 -9 9 -7 5
2 13 -2 17 -8 8 -13 40 -3 40 13 0 6 -7 19 -17 29 -9 10 -11 18 -5 18 6 0 12
-6 15 -12 2 -7 8 -9 13 -5 5 5 2 20 -6 34 -16 28 -40 42 -40 24z m0 -35 c0 -2
-7 -6 -15 -10 -8 -3 -15 -1 -15 4 0 6 7 10 15 10 8 0 15 -2 15 -4z"/>
<path d="M64 1445 c-10 -8 -14 -15 -8 -15 6 0 17 7 24 15 16 19 9 19 -16 0z"/>
<path d="M58 1423 c-32 -16 -36 -43 -10 -66 24 -22 33 -22 25 0 -4 10 -2 14 4
10 18 -12 43 4 43 27 0 16 2 18 9 7 11 -18 3 -41 -14 -41 -8 0 -17 -4 -20 -10
-14 -23 26 -8 41 15 14 22 15 30 4 50 -15 28 -40 31 -82 8z m29 -22 c0 -11 -7
-17 -14 -14 -9 4 -9 8 0 19 16 17 16 17 14 -5z m-33 -17 c3 -8 2 -12 -4 -9 -6
3 -10 10 -10 16 0 14 7 11 14 -7z"/>
<path d="M260 1398 c-11 -12 -20 -27 -20 -32 0 -6 4 -5 9 2 7 11 9 11 14 -2 4
-10 1 -16 -8 -16 -22 0 -18 -18 11 -46 29 -30 68 -27 96 9 49 63 -48 143 -102
85z m30 -3 c-9 -10 -9 -15 -1 -15 6 0 11 -5 11 -12 0 -8 -6 -7 -16 4 -16 16
-12 38 8 38 7 0 6 -6 -2 -15z m52 -28 l-7 -22 -3 23 c-2 13 -8 20 -14 16 -7
-4 -8 -2 -4 4 12 20 34 3 28 -21z m15 -29 c-3 -8 -6 -5 -6 6 -1 11 2 17 5 13
3 -3 4 -12 1 -19z"/>
<path d="M537 1346 c-144 -40 -227 -174 -215 -347 9 -127 80 -229 188 -271 76
-29 185 -28 262 1 58 22 173 115 163 131 -3 4 -30 22 -60 39 l-56 32 -41 -35
c-101 -87 -265 -45 -294 77 l-6 27 226 0 226 0 0 43 c0 128 -68 244 -168 289
-55 25 -163 32 -225 14z m156 -120 c35 -14 62 -48 73 -90 l6 -26 -146 0 -146
0 15 37 c20 48 34 63 70 79 39 17 88 17 128 0z"/>
<path d="M1317 1346 c-45 -12 -76 -32 -104 -66 -11 -13 -13 -13 -14 0 -1 8 -2
20 -4 25 -1 6 -3 16 -3 23 -2 8 -23 12 -72 12 l-70 0 0 -310 0 -310 75 0 74 0
0 174 c0 101 5 185 11 202 22 56 68 90 143 102 l41 7 1 75 c0 85 -2 87 -78 66z"/>
<path d="M1646 1349 c-160 -38 -262 -219 -221 -394 19 -82 34 -113 83 -162
133 -134 354 -114 460 41 17 27 32 52 32 57 0 8 -120 74 -124 67 -36 -60 -61
-88 -89 -101 -45 -22 -72 -21 -123 2 -33 15 -47 30 -69 75 -24 48 -27 65 -22
115 6 65 37 135 68 152 85 45 155 27 213 -55 13 -19 14 -19 70 4 31 12 59 26
62 31 9 15 -23 64 -69 106 -69 64 -167 86 -271 62z"/>
<path d="M20 1259 c0 -5 7 -12 15 -15 8 -4 15 -16 15 -27 0 -15 3 -18 11 -10
8 8 8 17 0 31 -12 22 -41 37 -41 21z"/>
<path d="M180 1255 c-7 -8 -16 -13 -20 -10 -16 10 -31 -40 -21 -68 12 -30 26
-37 16 -8 -3 11 0 21 9 24 17 7 29 -50 12 -57 -6 -2 3 -5 20 -5 41 -1 77 36
72 75 -3 27 -5 29 -48 27 l-45 -2 34 10 c27 8 31 13 20 20 -20 13 -35 11 -49
-6z m-10 -29 c0 -2 -7 -7 -16 -10 -8 -3 -12 -2 -9 4 6 10 25 14 25 6z m57 -12
c-3 -3 -12 -4 -19 -1 -8 3 -5 6 6 6 11 1 17 -2 13 -5z m29 -41 c-10 -10 -19 5
-10 18 6 11 8 11 12 0 2 -7 1 -15 -2 -18z"/>
<path d="M4 1203 c-1 -29 2 -53 6 -53 14 0 55 39 43 40 -7 0 -13 8 -13 18 0
10 -8 24 -18 33 -17 14 -18 12 -18 -38z m26 -18 c0 -8 -4 -15 -10 -15 -5 0 -7
7 -4 15 4 8 8 15 10 15 2 0 4 -7 4 -15z"/>
<path d="M125 1065 c-39 -38 -30 -87 19 -112 24 -13 76 6 76 27 0 9 5 21 10
26 14 14 -10 61 -37 73 -15 7 -23 7 -23 1 0 -6 -5 -10 -11 -10 -5 0 -7 5 -4
10 11 18 -6 10 -30 -15z m30 -27 c13 -79 14 -90 8 -84 -4 4 -8 19 -10 34 -6
53 -14 73 -25 66 -7 -4 -8 -3 -4 4 13 21 25 13 31 -20z m38 17 c-3 -9 -8 -14
-10 -11 -3 3 -2 9 2 15 9 16 15 13 8 -4z m12 -83 c-3 -3 -11 0 -18 7 -9 10 -8
11 6 5 10 -3 15 -9 12 -12z"/>
<path d="M0 1021 c0 -53 0 -54 20 -36 24 21 26 40 5 31 -8 -3 -15 -1 -15 3 0
5 5 11 10 13 7 2 5 11 -4 23 -14 19 -15 16 -16 -34z"/>
<path d="M163 885 c-31 -30 -29 -68 3 -94 34 -27 61 -27 69 0 5 16 9 18 15 9
6 -9 10 -6 15 11 5 14 3 25 -4 27 -6 2 -11 8 -11 13 0 6 5 7 10 4 6 -3 10 1
10 10 0 11 -5 15 -16 11 -11 -4 -14 -1 -10 12 9 28 -53 26 -81 -3z m-6 -52
c-3 -10 -5 -4 -5 12 0 17 2 24 5 18 2 -7 2 -21 0 -30z m53 -43 c0 -5 -4 -10
-10 -10 -5 0 -10 5 -10 10 0 6 5 10 10 10 6 0 10 -4 10 -10z"/>
<path d="M20 860 c0 -6 7 -13 15 -16 8 -4 15 -15 15 -26 0 -20 -27 -54 -36
-46 -2 3 2 11 11 18 20 17 19 32 -3 51 -18 16 -19 14 -20 -37 l0 -54 29 16
c28 14 32 19 32 49 0 29 -3 34 -23 45 -14 8 -20 8 -20 0z"/>
<path d="M273 745 c-21 -15 -36 -62 -23 -70 4 -3 10 9 14 27 3 17 8 29 11 26
3 -2 0 -20 -5 -39 -9 -29 -7 -36 10 -51 22 -18 55 -14 83 10 23 20 22 39 -3
47 -11 4 -18 11 -14 16 4 6 11 6 20 -2 21 -18 17 4 -6 29 -24 26 -57 28 -87 7z
m57 1 c0 -11 -19 -15 -25 -6 -3 5 1 10 9 10 9 0 16 -2 16 -4z m-30 -72 c0 -8
-5 -12 -10 -9 -6 4 -8 11 -5 16 9 14 15 11 15 -7z m16 -10 c-4 -12 -2 -15 9
-10 8 3 15 1 15 -4 0 -6 -11 -10 -25 -10 -23 0 -24 2 -13 20 15 24 22 26 14 4z"/>
<path d="M67 672 c-24 -26 -22 -73 3 -79 11 -3 17 -9 14 -14 -3 -5 4 -9 14 -9
16 0 19 5 15 23 -4 20 -3 20 9 5 13 -15 15 -15 26 3 16 25 15 32 -3 25 -8 -3
-15 -1 -15 4 0 6 5 10 10 10 18 0 11 29 -9 40 -28 15 -46 12 -64 -8z m59 -3
c3 -6 1 -16 -6 -22 -10 -9 -12 -8 -6 7 5 15 2 17 -14 13 -11 -3 -20 -1 -20 4
0 13 37 11 46 -2z"/>
<path d="M781 666 c-9 -10 -9 -16 -1 -21 6 -4 14 -4 17 -1 4 3 1 6 -7 6 -10 0
-10 3 0 15 7 8 10 15 7 15 -2 0 -10 -6 -16 -14z"/>
<path d="M465 661 c3 -5 -5 -11 -17 -13 -18 -2 -24 -11 -26 -34 -4 -37 21 -53
45 -28 8 8 18 12 22 9 6 -7 -35 -45 -48 -45 -3 0 -14 12 -23 28 -10 15 -18 22
-18 15 0 -24 46 -65 73 -65 55 0 87 81 46 118 -13 12 -19 13 -19 4 0 -7 8 -19
18 -26 14 -11 15 -13 2 -14 -9 0 -21 5 -28 12 -9 9 -12 9 -12 -2 0 -7 -3 -10
-6 -7 -4 4 -1 13 5 21 13 16 7 36 -10 36 -6 0 -8 -4 -4 -9z m-18 -43 c-3 -8
-6 -5 -6 6 -1 11 2 17 5 13 3 -3 4 -12 1 -19z m40 -74 c-3 -3 -12 -4 -19 -1
-8 3 -5 6 6 6 11 1 17 -2 13 -5z"/>
<path d="M632 630 c5 -15 -20 -50 -36 -50 -5 0 -1 9 9 20 10 11 16 22 13 25
-3 3 -11 -2 -19 -11 -15 -18 -14 -73 2 -89 7 -7 8 -1 3 19 -5 21 -4 27 5 22 6
-4 11 -1 11 8 0 9 7 16 15 16 17 0 19 18 4 40 -9 12 -10 13 -7 0z"/>
<path d="M650 630 c0 -5 10 -10 23 -10 18 0 19 2 7 10 -19 13 -30 13 -30 0z"/>
<path d="M790 620 c0 -6 7 -10 15 -10 8 0 15 2 15 4 0 2 -7 6 -15 10 -8 3 -15
1 -15 -4z"/>
<path d="M1264 589 c-10 -17 13 -36 27 -22 12 12 4 33 -11 33 -5 0 -12 -5 -16
-11z"/>
<path d="M673 575 c-43 -30 -17 -90 48 -110 10 -4 19 -11 19 -16 0 -17 -32
-23 -61 -12 -27 10 -29 9 -29 -12 0 -37 66 -49 108 -19 42 29 15 89 -49 109
-32 10 -15 30 25 30 31 0 36 3 34 20 -4 26 -64 32 -95 10z"/>
<path d="M1780 577 c-56 -29 -67 -111 -21 -158 29 -29 60 -36 109 -23 19 6 22
13 22 60 l0 54 -40 0 c-33 0 -40 -3 -40 -20 0 -13 7 -20 20 -20 13 0 20 -7 20
-20 0 -26 -40 -27 -63 -2 -41 46 -5 107 58 100 32 -4 36 -2 33 16 -4 26 -60
33 -98 13z"/>
<path d="M823 563 c-7 -2 -13 -11 -13 -19 0 -8 -4 -14 -10 -14 -5 0 -10 -7
-10 -15 0 -8 5 -15 10 -15 6 0 10 -19 10 -43 0 -24 5 -48 12 -55 17 -17 58
-15 58 3 0 8 -7 15 -15 15 -11 0 -15 11 -15 40 0 29 4 40 15 40 8 0 15 7 15
15 0 8 -7 15 -15 15 -8 0 -15 9 -15 20 0 20 -5 23 -27 13z"/>
<path d="M1183 563 c-7 -2 -13 -11 -13 -19 0 -8 -4 -14 -10 -14 -5 0 -10 -7
-10 -15 0 -8 5 -15 10 -15 6 0 10 -19 10 -43 0 -24 5 -48 12 -55 17 -17 58
-15 58 3 0 8 -7 15 -15 15 -11 0 -15 11 -15 40 0 29 4 40 15 40 8 0 15 7 15
15 0 8 -7 15 -15 15 -8 0 -15 9 -15 20 0 20 -5 23 -27 13z"/>
<path d="M2363 563 c-7 -2 -13 -11 -13 -19 0 -8 -4 -14 -10 -14 -5 0 -10 -7
-10 -15 0 -8 5 -15 10 -15 6 0 10 -19 10 -43 0 -24 5 -48 12 -55 17 -17 58
-15 58 3 0 8 -7 15 -15 15 -11 0 -15 11 -15 40 0 29 4 40 15 40 8 0 15 7 15
15 0 8 -7 15 -15 15 -8 0 -15 9 -15 20 0 20 -5 23 -27 13z"/>
<path d="M239 541 c11 -7 11 -10 -1 -17 -8 -5 -20 -18 -26 -29 -11 -20 -11
-20 -12 1 0 11 3 24 8 30 4 5 -1 1 -10 -9 -25 -27 -6 -67 40 -81 16 -5 28 -1
47 18 14 14 25 30 25 36 0 18 -48 60 -67 60 -14 0 -15 -2 -4 -9z m51 -41 c0
-10 -27 -7 -37 5 -4 4 -2 5 5 1 6 -4 12 -2 12 4 0 6 5 8 10 5 6 -3 10 -10 10
-15z m-40 -22 c0 -4 -6 -5 -14 -2 -8 3 -12 12 -9 21 5 12 7 12 14 1 5 -7 9
-16 9 -20z m-10 -23 c11 -13 10 -14 -4 -9 -9 3 -16 10 -16 15 0 13 6 11 20 -6z"/>
<path d="M923 523 c-26 -10 -13 -30 16 -25 16 2 32 -1 35 -7 4 -6 0 -11 -11
-11 -30 0 -64 -30 -61 -52 4 -31 33 -46 58 -30 12 7 20 8 20 2 0 -5 9 -10 20
-10 18 0 20 7 20 54 0 36 -5 60 -16 70 -15 15 -55 20 -81 9z m57 -78 c0 -16
-27 -32 -37 -22 -3 4 -3 13 0 22 8 20 37 20 37 0z"/>
<path d="M1050 460 c0 -63 2 -70 19 -70 17 0 20 8 23 48 3 40 6 47 26 50 14 2
22 10 22 23 0 21 -20 25 -38 7 -9 -9 -12 -9 -12 0 0 7 -9 12 -20 12 -18 0 -20
-7 -20 -70z"/>
<path d="M1260 460 c0 -63 2 -70 20 -70 18 0 20 7 20 70 0 63 -2 70 -20 70
-18 0 -20 -7 -20 -70z"/>
<path d="M1340 460 c0 -63 2 -70 19 -70 17 0 20 8 23 53 3 44 6 52 23 52 17 0
20 -8 23 -52 3 -45 6 -53 23 -53 16 0 19 7 19 51 0 28 -5 59 -10 70 -12 21
-50 25 -68 7 -9 -9 -12 -9 -12 0 0 7 -9 12 -20 12 -18 0 -20 -7 -20 -70z"/>
<path d="M1509 509 c-23 -23 -25 -66 -3 -98 14 -19 23 -22 50 -18 19 3 34 2
34 -2 0 -18 -31 -33 -60 -29 -24 4 -30 1 -28 -11 2 -11 16 -17 40 -19 29 -3
43 2 63 22 22 22 25 33 25 100 l0 74 -51 0 c-37 1 -55 -4 -70 -19z m76 -49 c0
-29 -4 -36 -23 -38 -26 -4 -37 17 -28 54 5 19 12 25 29 22 18 -2 22 -9 22 -38z"/>
<path d="M1930 460 c0 -63 2 -70 19 -70 17 0 20 8 23 48 3 40 6 47 26 50 14 2
22 10 22 23 0 21 -20 25 -38 7 -9 -9 -12 -9 -12 0 0 7 -9 12 -20 12 -18 0 -20
-7 -20 -70z"/>
<path d="M2043 523 c-26 -10 -13 -30 16 -25 16 2 32 -1 35 -7 4 -6 0 -11 -11
-11 -30 0 -64 -30 -61 -52 4 -31 33 -46 58 -30 12 7 20 8 20 2 0 -5 9 -10 20
-10 18 0 20 7 20 54 0 36 -5 60 -16 70 -15 15 -55 20 -81 9z m57 -78 c0 -16
-27 -32 -37 -22 -3 4 -3 13 0 22 8 20 37 20 37 0z"/>
<path d="M2170 460 c0 -63 2 -70 19 -70 17 0 20 8 23 53 3 44 6 52 23 52 17 0
20 -8 23 -52 3 -45 6 -53 23 -53 16 0 19 7 19 51 0 28 -5 59 -10 70 -12 21
-50 25 -68 7 -9 -9 -12 -9 -12 0 0 7 -9 12 -20 12 -18 0 -20 -7 -20 -70z"/>
<path d="M2448 519 c-28 -16 -22 -48 12 -67 38 -22 38 -35 0 -30 -24 4 -30 1
-28 -11 4 -20 50 -26 78 -11 29 16 25 48 -10 68 -36 21 -39 36 -5 30 19 -4 25
-1 25 13 0 21 -42 26 -72 8z"/>
<path d="M19 470 c-17 -14 -20 -19 -9 -20 13 0 13 -1 0 -10 -20 -13 -1 -44 29
-48 25 -4 61 23 61 45 0 15 -35 53 -49 53 -5 0 -19 -9 -32 -20z m71 -30 c0 -5
-7 -7 -15 -4 -8 4 -12 10 -9 15 6 11 24 2 24 -11z m-15 -20 c3 -6 -1 -7 -9 -4
-9 3 -16 1 -16 -6 0 -6 -5 -8 -10 -5 -6 4 -8 11 -5 16 8 12 32 12 40 -1z"/>
<path d="M366 444 c-9 -8 -16 -23 -16 -31 0 -9 1 -14 3 -12 1 2 13 16 26 32
26 28 14 39 -13 11z"/>
<path d="M415 450 c3 -5 1 -10 -5 -10 -6 0 -9 -4 -6 -9 3 -5 -2 -8 -12 -7 -11
0 -18 -7 -20 -22 -2 -14 -8 -20 -15 -16 -7 4 -1 -4 12 -17 13 -14 25 -19 28
-13 2 6 14 9 27 7 25 -5 46 25 25 37 -8 6 -7 9 2 12 11 4 10 10 -5 27 -19 21
-43 30 -31 11z m-5 -50 c0 -5 -2 -10 -4 -10 -3 0 -8 5 -11 10 -3 6 -1 10 4 10
6 0 11 -4 11 -10z"/>
<path d="M597 403 c-3 -15 -1 -36 3 -47 6 -16 8 -9 11 27 4 50 -5 65 -14 20z"/>
<path d="M570 375 c0 -22 33 -65 51 -65 8 0 23 31 21 42 -1 4 5 5 13 1 13 -5
13 -7 -2 -19 -10 -7 -13 -14 -7 -14 6 0 17 6 23 14 10 12 8 17 -8 25 -29 16
-41 13 -41 -9 0 -11 -5 -20 -10 -20 -13 0 -32 48 -24 61 3 5 0 9 -5 9 -6 0
-11 -11 -11 -25z"/>
<path d="M133 374 c-14 -14 -17 -28 -5 -21 4 3 13 -2 21 -10 12 -13 11 -14 -8
-8 -27 8 -27 -6 -1 -30 18 -16 23 -17 45 -5 39 21 30 90 -13 90 -8 0 -10 -5
-6 -12 6 -10 5 -10 -7 -2 -11 9 -17 9 -26 -2z"/>
<path d="M795 360 c-3 -6 1 -7 9 -4 18 7 21 14 7 14 -6 0 -13 -4 -16 -10z"/>
<path d="M2 290 c-1 -16 2 -30 8 -30 5 0 11 10 11 23 1 19 2 20 6 3 3 -12 -2
-25 -13 -33 -19 -14 -15 -17 10 -7 19 7 21 45 4 62 -18 18 -24 15 -26 -18z"/>
<path d="M911 298 c-35 -32 -13 -78 37 -78 28 0 29 16 2 30 -11 6 -18 16 -14
22 4 6 1 9 -7 6 -8 -3 -13 -14 -11 -24 2 -18 2 -18 -9 -1 -8 13 -7 22 1 33 18
20 40 17 40 -5 0 -11 5 -23 11 -27 8 -4 9 1 5 17 -4 18 -2 16 9 -6 l14 -30 1
26 c0 46 -47 68 -79 37z"/>
<path d="M287 292 c-19 -21 -22 -48 -6 -58 7 -4 9 0 5 12 -3 11 -1 26 5 34 9
12 10 11 4 -5 -4 -13 1 -25 17 -38 16 -13 18 -17 6 -13 -10 3 -18 1 -18 -4 0
-17 36 -11 53 8 22 24 22 51 0 68 -25 19 -47 17 -66 -4z m43 -32 c0 -5 -4 -10
-10 -10 -5 0 -10 5 -10 10 0 6 5 10 10 10 6 0 10 -4 10 -10z"/>
<path d="M442 257 c-6 -7 -9 -24 -6 -38 5 -23 5 -23 -10 -5 -17 21 -22 11 -7
-13 11 -17 31 -6 32 17 0 10 3 12 5 5 3 -7 0 -21 -6 -32 -7 -15 -7 -21 0 -21
6 0 15 10 21 23 9 21 9 20 6 -5 -2 -15 0 -25 4 -22 5 3 9 18 9 35 0 16 5 29
10 29 6 0 10 4 10 10 0 5 -7 7 -15 4 -12 -5 -14 -2 -8 12 6 17 5 18 -12 4 -11
-9 -16 -10 -11 -2 10 16 -9 16 -22 -1z"/>
<path d="M765 259 c4 -5 0 -9 -8 -9 -28 0 -29 -33 -3 -57 30 -28 36 -29 36 -5
0 12 2 14 8 4 7 -9 13 -8 27 8 16 17 16 22 3 41 -13 21 -75 38 -63 18z m-5
-39 c0 -5 -4 -10 -10 -10 -5 0 -10 5 -10 10 0 6 5 10 10 10 6 0 10 -4 10 -10z"/>
<path d="M608 242 c-24 -5 -35 -50 -16 -68 8 -8 24 -16 35 -19 24 -4 51 19 33
30 -5 3 -10 1 -10 -5 0 -6 -4 -8 -10 -5 -5 3 -10 13 -10 21 0 9 5 12 12 8 7
-5 9 -2 5 9 -4 12 -2 14 11 10 14 -5 15 -3 5 7 -14 15 -29 18 -55 12z m16 -57
c3 -8 3 -15 0 -15 -3 0 -12 7 -20 15 -13 13 -13 15 -1 15 8 0 17 -7 21 -15z"/>
<path d="M122 212 c-26 -26 -27 -35 -6 -56 18 -19 20 -19 45 -6 21 12 24 36 9
60 -7 11 -9 7 -7 -15 2 -24 -2 -31 -19 -33 -12 -2 -24 4 -27 12 -5 13 -3 14
13 4 25 -16 34 -5 23 28 l-9 28 -22 -22z"/>
<path d="M507 213 c-4 -3 -7 -11 -7 -17 0 -6 5 -5 12 2 6 6 9 14 7 17 -3 3 -9
2 -12 -2z"/>
<path d="M1042 198 c-17 -17 -15 -38 4 -38 8 0 13 -4 9 -9 -8 -14 12 -23 36
-16 15 5 17 10 9 20 -8 9 -6 14 6 19 13 5 14 9 4 21 -15 18 -51 20 -68 3z m45
-4 c-3 -3 -12 -4 -19 -1 -8 3 -5 6 6 6 11 1 17 -2 13 -5z"/>
<path d="M324 119 l-19 -22 25 7 25 7 -23 -13 c-17 -11 -20 -16 -10 -26 17
-17 58 -15 58 2 0 8 6 17 13 19 10 4 10 6 0 6 -7 1 -13 9 -13 19 0 13 -2 14
-9 3 -7 -11 -10 -10 -18 3 -8 15 -11 15 -29 -5z"/>
<path d="M871 118 c-10 -27 -6 -38 15 -38 8 0 12 -4 9 -10 -12 -19 18 -10 36
11 14 16 16 26 8 40 -14 27 -57 25 -68 -3z m56 -3 c8 -23 0 -24 -19 -3 -15 15
-16 18 -3 18 9 0 18 -7 22 -15z"/>
<path d="M702 98 c-20 -20 -14 -54 12 -66 20 -9 27 -7 40 7 21 23 20 33 -2 51
-24 20 -37 21 -50 8z m9 -29 c-5 -13 -10 -19 -10 -12 -1 15 10 45 15 40 3 -2
0 -15 -5 -28z"/>
<path d="M481 86 c-11 -13 -11 -20 3 -41 21 -32 32 -32 41 2 7 26 8 26 15 8 8
-18 9 -17 9 7 1 15 -3 30 -9 33 -5 3 -10 1 -10 -4 0 -14 -27 -14 -32 0 -2 7
-9 5 -17 -5z"/>
<path d="M152 28 c-19 -19 -14 -25 17 -26 32 -1 49 23 25 32 -22 8 -28 8 -42
-6z m35 -4 c-3 -3 -12 -4 -19 -1 -8 3 -5 6 6 6 11 1 17 -2 13 -5z"/>
<path d="M1022 17 c-9 -10 -3 -13 24 -15 23 -2 33 1 29 8 -3 6 -11 8 -16 5 -5
-4 -9 -1 -9 4 0 15 -15 14 -28 -2z"/>
</g>
</svg>
