<?xml version="1.0" standalone="no"?>
<!DOCTYPE svg PUBLIC "-//W3C//DTD SVG 20010904//EN"
 "http://www.w3.org/TR/2001/REC-SVG-20010904/DTD/svg10.dtd">
<svg version="1.0" xmlns="http://www.w3.org/2000/svg"
 width="528.000000pt" height="404.000000pt" viewBox="0 0 528.000000 404.000000"
 preserveAspectRatio="xMidYMid meet">

<g transform="translate(0.000000,404.000000) scale(0.100000,-0.100000)"
fill="#000000" stroke="none">
<path d="M2509 3539 c-304 -17 -620 -66 -959 -150 -328 -81 -760 -232 -760
-265 0 -8 2 -14 5 -14 3 0 64 20 137 45 840 288 1845 344 2483 138 172 -55
326 -160 366 -248 26 -56 24 -129 -5 -190 -23 -50 -99 -128 -168 -175 -26 -17
-38 -33 -38 -48 l0 -24 38 22 c121 71 258 192 320 283 111 160 72 306 -114
427 -166 108 -463 177 -869 200 -188 11 -224 11 -436 -1z"/>
<path d="M2664 2593 c-131 -244 -173 -319 -251 -448 -103 -172 -203 -307 -365
-491 -68 -78 -134 -154 -146 -170 -12 -16 7 28 42 97 163 328 258 649 260 879
1 111 -9 144 -52 184 -23 20 -72 23 -112 8 -71 -28 -195 -145 -283 -267 -41
-57 -117 -186 -117 -197 0 -5 16 -8 34 -8 33 0 37 4 72 70 64 123 157 202 203
173 28 -18 35 -80 22 -192 -28 -242 -150 -610 -302 -912 -27 -54 -49 -101 -49
-104 0 -3 16 -5 35 -5 31 0 51 15 177 134 317 296 517 529 648 753 22 37 40
64 40 60 0 -5 -16 -83 -35 -174 -63 -291 -140 -534 -219 -691 -20 -39 -36 -74
-36 -77 0 -3 13 -5 29 -5 25 0 56 27 199 173 397 404 574 621 722 885 84 151
130 276 130 359 0 23 -4 45 -10 48 -17 11 -74 -27 -135 -90 -75 -77 -90 -109
-104 -211 -18 -142 -95 -306 -225 -479 -45 -59 -331 -393 -369 -430 -6 -5 0 5
12 22 31 45 104 201 141 303 45 120 96 326 114 458 25 179 19 393 -12 424 -6
6 -27 -21 -58 -79z"/>
<path d="M3995 2624 c-182 -36 -351 -166 -433 -334 -129 -263 -84 -578 112
-775 39 -39 93 -85 120 -100 208 -121 494 -118 703 7 72 42 169 139 211 211
83 138 114 338 78 501 -42 189 -171 355 -337 434 -141 68 -297 87 -454 56z
m263 -169 c142 -34 248 -118 314 -251 39 -80 42 -90 46 -193 5 -132 -16 -215
-78 -309 -91 -135 -228 -206 -400 -205 -103 1 -184 25 -265 78 -130 87 -205
235 -205 407 0 140 46 256 139 348 120 119 283 164 449 125z"/>
<path d="M140 1980 l0 -640 85 0 85 0 2 489 3 488 404 -488 405 -489 78 0 78
0 0 640 0 640 -85 0 -85 0 0 -490 c0 -269 -3 -490 -7 -489 -5 0 -190 221 -412
490 l-404 489 -74 0 -73 0 0 -640z"/>
<path d="M3000 841 c0 -5 13 -12 30 -16 40 -9 52 -28 106 -170 26 -66 67 -172
91 -235 95 -248 96 -250 113 -250 10 0 46 79 115 253 54 138 105 263 112 277
7 14 13 28 13 33 0 4 11 25 24 46 17 26 34 40 55 44 17 4 31 11 31 17 0 6 -42
10 -110 10 -67 0 -110 -4 -110 -10 0 -5 8 -10 18 -10 32 0 63 -30 57 -53 -9
-31 -133 -365 -151 -405 -8 -18 -14 -39 -14 -47 0 -30 -18 -14 -35 33 -10 26
-23 61 -30 77 -14 33 -24 61 -85 214 -22 57 -41 118 -43 135 -2 27 2 32 31 41
60 17 32 25 -93 25 -69 0 -125 -4 -125 -9z"/>
<path d="M3740 842 c0 -5 18 -14 39 -21 37 -10 40 -15 46 -54 4 -23 5 -154 3
-290 -3 -233 -4 -250 -22 -263 -11 -8 -30 -14 -43 -14 -14 0 -23 -6 -23 -15 0
-13 19 -15 132 -13 94 2 133 7 136 16 2 8 -7 12 -26 12 -68 0 -75 31 -70 351
3 255 5 262 59 274 69 15 33 25 -95 25 -75 0 -136 -4 -136 -8z"/>
<path d="M4090 842 c0 -5 15 -13 33 -16 54 -10 57 -27 57 -312 0 -296 -4 -313
-73 -314 -19 0 -27 -4 -24 -12 7 -21 326 -15 402 7 124 36 193 89 241 182 37
73 46 193 19 272 -22 67 -83 134 -153 168 -56 27 -60 28 -279 31 -142 3 -223
0 -223 -6z m430 -46 c94 -49 131 -114 138 -242 6 -121 -15 -190 -76 -256 -55
-59 -127 -88 -215 -88 -103 1 -97 -18 -97 320 l0 292 108 -4 c78 -3 117 -9
142 -22z"/>
<path d="M4850 841 c0 -5 16 -12 35 -15 26 -5 39 -14 45 -32 6 -14 10 -144 10
-290 0 -251 -1 -265 -20 -284 -11 -11 -31 -20 -45 -20 -16 0 -25 -6 -25 -15 0
-13 19 -15 132 -13 94 2 133 7 136 16 2 7 -6 12 -22 12 -14 0 -35 9 -46 20
-19 19 -20 33 -20 291 0 163 4 278 10 289 6 11 26 22 45 26 73 13 30 24 -100
24 -74 0 -135 -4 -135 -9z"/>
</g>
</svg>
